<svg version="1.1" id="Layer_1" xmlns="http://www.w3.org/2000/svg" xmlns:xlink="http://www.w3.org/1999/xlink" x="0px" y="0px"
	 width="100%" viewBox="0 0 770 768" enable-background="new 0 0 770 768" xml:space="preserve">
<path fill="#000000" opacity="1.000000" stroke="none" 
	d="
M510.000000,769.000000 
	C340.027527,769.000000 170.555054,769.000000 1.041296,769.000000 
	C1.041296,513.069092 1.041296,257.138214 1.041296,1.103666 
	C257.555817,1.103666 514.111694,1.103666 770.833801,1.103666 
	C770.833801,256.999908 770.833801,512.999939 770.833801,769.000000 
	C684.138123,769.000000 597.319092,769.000000 510.000000,769.000000 
M594.791016,362.609375 
	C618.395142,362.609375 641.999268,362.609375 666.648315,362.609375 
	C664.253052,348.890350 662.750000,335.649414 659.569214,322.824585 
	C640.672607,246.634109 597.628479,187.928604 530.558960,147.093842 
	C505.863495,132.058197 479.366638,121.172775 450.201324,114.997963 
	C449.410187,114.741493 448.635071,114.408096 447.825623,114.239586 
	C408.757446,106.106392 369.666718,105.469757 330.538055,113.849861 
	C262.043915,128.519073 206.710190,164.077759 164.359390,219.597427 
	C136.788055,255.742004 119.756622,296.687622 112.183830,341.513947 
	C111.039749,348.286316 110.512054,355.162750 109.681610,362.139160 
	C166.911087,362.139160 223.169357,362.139160 279.595001,362.139160 
	C280.108215,360.225037 280.563293,358.486206 281.040649,356.753510 
	C295.251648,305.168579 344.197876,270.503754 399.490753,277.272186 
	C444.183258,282.743011 479.493591,314.331390 491.014740,357.851074 
	C491.900085,361.195496 493.191803,362.566406 496.984985,362.549957 
	C527.636047,362.416931 558.288269,362.563690 588.940125,362.599976 
	C590.591919,362.601929 592.244019,362.378479 594.791016,362.609375 
M593.008911,407.487396 
	C559.541626,407.487396 526.074341,407.487396 492.680115,407.487396 
	C478.748352,465.984924 428.349457,494.285492 384.955566,493.586334 
	C361.180756,493.203278 339.579041,486.041962 320.601410,471.661987 
	C299.155334,455.411499 285.665955,433.885071 279.635773,407.792419 
	C221.658783,407.792419 163.942307,407.792419 105.955444,407.792419 
	C106.676567,413.910522 107.103935,419.710968 108.093697,425.413849 
	C109.507919,433.562378 110.973587,441.732483 113.039703,449.732635 
	C133.083618,527.344116 177.933777,586.230164 247.347229,626.195068 
	C283.255005,646.869019 322.108032,658.213196 363.475189,661.246826 
	C393.412262,663.442383 422.867981,660.992432 452.727417,653.817871 
	C453.515594,653.562073 454.293976,653.269653 455.093384,653.055847 
	C514.250732,637.233826 563.089478,605.436890 601.679993,557.976440 
	C629.878906,523.296082 648.384094,483.891205 657.585938,440.189636 
	C659.824951,429.555878 661.021545,418.702576 662.794983,407.324097 
	C650.565125,407.324097 639.438721,407.269226 628.313171,407.339325 
	C616.840576,407.411621 605.368774,407.605530 593.008911,407.487396 
M390.113312,321.234283 
	C385.972382,321.458313 381.807617,321.472229 377.694305,321.939362 
	C342.968170,325.882874 316.203156,359.062805 323.310333,396.405029 
	C330.232086,432.773468 365.003052,455.459717 400.699280,446.870819 
	C425.131042,440.992218 441.453278,425.279297 447.646973,401.029755 
	C454.040985,375.995941 446.882202,354.121613 427.496002,336.707062 
	C417.159302,327.421600 404.733704,322.761444 390.113312,321.234283 
z"/>
<path fill="#FFFFFF" opacity="1.000000" stroke="none" 
	d="
M451.958862,653.733276 
	C422.867981,660.992432 393.412262,663.442383 363.475189,661.246826 
	C322.108032,658.213196 283.255005,646.869019 247.347229,626.195068 
	C177.933777,586.230164 133.083618,527.344116 113.039703,449.732635 
	C110.973587,441.732483 109.507919,433.562378 108.093697,425.413849 
	C107.103935,419.710968 106.676567,413.910522 105.955444,407.792419 
	C163.942307,407.792419 221.658783,407.792419 279.635773,407.792419 
	C285.665955,433.885071 299.155334,455.411499 320.601410,471.661987 
	C339.579041,486.041962 361.180756,493.203278 384.955566,493.586334 
	C428.349457,494.285492 478.748352,465.984924 492.680115,407.487396 
	C526.074341,407.487396 559.541626,407.487396 593.447021,407.988800 
	C592.607056,418.992645 591.547791,429.527283 590.009644,439.991486 
	C585.514282,470.575073 576.539307,499.879333 563.487549,527.848389 
	C547.816956,561.429260 527.374573,591.811218 499.643585,616.658936 
	C487.321686,627.699646 473.744812,637.343079 460.689484,647.559326 
	C457.885712,649.753296 454.874481,651.682190 451.958862,653.733276 
z"/>
<path fill="#FF1C1C" opacity="1.000000" stroke="none" 
	d="
M593.895935,362.259949 
	C592.244019,362.378479 590.591919,362.601929 588.940125,362.599976 
	C558.288269,362.563690 527.636047,362.416931 496.984985,362.549957 
	C493.191803,362.566406 491.900085,361.195496 491.014740,357.851074 
	C479.493591,314.331390 444.183258,282.743011 399.490753,277.272186 
	C344.197876,270.503754 295.251648,305.168579 281.040649,356.753510 
	C280.563293,358.486206 280.108215,360.225037 279.595001,362.139160 
	C223.169357,362.139160 166.911087,362.139160 109.681610,362.139160 
	C110.512054,355.162750 111.039749,348.286316 112.183830,341.513947 
	C119.756622,296.687622 136.788055,255.742004 164.359390,219.597427 
	C206.710190,164.077759 262.043915,128.519073 330.538055,113.849861 
	C369.666718,105.469757 408.757446,106.106392 447.825623,114.239586 
	C448.635071,114.408096 449.410187,114.741493 450.636597,115.441483 
	C451.878540,116.661896 452.565979,117.648827 453.509552,118.184654 
	C472.536987,128.989716 489.618286,142.422180 505.048004,157.798828 
	C513.589661,166.311081 521.180054,175.829636 528.750916,185.254684 
	C551.070618,213.040665 566.610474,244.514465 577.799011,278.156769 
	C586.871765,305.437286 591.760071,333.606903 593.895935,362.259949 
z"/>
<path fill="#DD1818" opacity="1.000000" stroke="none" 
	d="
M594.343506,362.434662 
	C591.760071,333.606903 586.871765,305.437286 577.799011,278.156769 
	C566.610474,244.514465 551.070618,213.040665 528.750916,185.254684 
	C521.180054,175.829636 513.589661,166.311081 505.048004,157.798828 
	C489.618286,142.422180 472.536987,128.989716 453.509552,118.184654 
	C452.565979,117.648827 451.878540,116.661896 451.019592,115.547714 
	C479.366638,121.172775 505.863495,132.058197 530.558960,147.093842 
	C597.628479,187.928604 640.672607,246.634109 659.569214,322.824585 
	C662.750000,335.649414 664.253052,348.890350 666.648315,362.609375 
	C641.999268,362.609375 618.395142,362.609375 594.343506,362.434662 
z"/>
<path fill="#DDDDDD" opacity="1.000000" stroke="none" 
	d="
M452.343140,653.775513 
	C454.874481,651.682190 457.885712,649.753296 460.689484,647.559326 
	C473.744812,637.343079 487.321686,627.699646 499.643585,616.658936 
	C527.374573,591.811218 547.816956,561.429260 563.487549,527.848389 
	C576.539307,499.879333 585.514282,470.575073 590.009644,439.991486 
	C591.547791,429.527283 592.607056,418.992645 593.890869,408.118225 
	C605.368774,407.605530 616.840576,407.411621 628.313171,407.339325 
	C639.438721,407.269226 650.565125,407.324097 662.794983,407.324097 
	C661.021545,418.702576 659.824951,429.555878 657.585938,440.189636 
	C648.384094,483.891205 629.878906,523.296082 601.679993,557.976440 
	C563.089478,605.436890 514.250732,637.233826 455.093384,653.055847 
	C454.293976,653.269653 453.515594,653.562073 452.343140,653.775513 
z"/>
<path fill="#FEFEFE" opacity="1.000000" stroke="none" 
	d="
M390.563538,321.286316 
	C404.733704,322.761444 417.159302,327.421600 427.496002,336.707062 
	C446.882202,354.121613 454.040985,375.995941 447.646973,401.029755 
	C441.453278,425.279297 425.131042,440.992218 400.699280,446.870819 
	C365.003052,455.459717 330.232086,432.773468 323.310333,396.405029 
	C316.203156,359.062805 342.968170,325.882874 377.694305,321.939362 
	C381.807617,321.472229 385.972382,321.458313 390.563538,321.286316 
z"/>
</svg>